# xmcd CD database file
#
# Track frame offsets:
#	150
#	38162
#	71265
#	109217
#	131600
#	163362
#	180635
#	204477
#	228715
#	251982
#	284807
#
# Disc length: 4216 seconds
#
# Revision: 1
# Processed by: cddbd v1.5.1PL0 Copyright (c) Steve Scherf et al.
# Submitted via: CDex 1.51
#
DISCID=ad10760b
DTITLE=Omnibus - Jazz Guitar on Bluenote
DYEAR=1900
DGENRE=Jazz
TTITLE0=Grace under pressure
TTITLE1=I want to hold your hand
TTITLE2=Lover man
TTITLE3=Autumn Leaves
TTITLE4=Eleanor Rigby
TTITLE5=Another day in paradise
TTITLE6=No woman, No cry
TTITLE7=Captain Caribe
TTITLE8=Colors of one
TTITLE9=Beautiful love
TTITLE10=You speak my language
EXTD=
EXTT0=
EXTT1=
EXTT2=
EXTT3=
EXTT4=
EXTT5=
EXTT6=
EXTT7=
EXTT8=
EXTT9=
EXTT10=
PLAYORDER=
